<!--?xml version="1.0" encoding="utf-8"?-->
<!-- Generator: Adobe Illustrator 15.1.0, SVG Export Plug-In . SVG Version: 6.00 Build 0)  -->

<svg version="1.1" id="_x32_" xmlns="http://www.w3.org/2000/svg" xmlns:xlink="http://www.w3.org/1999/xlink" x="0px" y="0px" width="512px" height="512px" viewBox="0 0 512 512" style="width: 256px; height: 256px; opacity: 1;" xml:space="preserve">
<style type="text/css">

	.st0{fill:#4B4B4B;}

</style>
<g>
	<path class="st0" d="M483.697,33.789l-5.469-5.469c-37.719-37.75-98.891-37.75-136.625,0l-177.75,177.75
		c-13.25,13.25-22.5,29.938-26.703,48.188l-9.563,41.375c-4.203,18.25-13.469,34.938-26.719,48.188l-52.016,52.031L36.385,408.32
		l-22.438,22.438c-18.594,18.594-18.594,48.719,0,67.313c18.594,18.563,48.734,18.563,67.313,0l22.438-22.438l12.469-12.469
		l52.016-52.031c13.25-13.25,29.953-22.5,48.203-26.719l41.375-9.531c18.25-4.219,34.953-13.469,48.188-26.719l177.75-177.75
		C521.432,132.664,521.432,71.508,483.697,33.789z M467.088,153.789l-177.75,177.75c-10.141,10.156-22.891,17.219-36.875,20.438
		l-41.359,9.531c-22.563,5.219-43.156,16.625-59.531,33l-47.875,47.875L69.635,408.32l47.859-47.875
		c16.391-16.375,27.797-36.969,33-59.531l9.547-41.375c3.234-13.969,10.281-26.719,20.438-36.875l177.75-177.719
		c28.5-28.531,74.875-28.531,103.391,0l5.469,5.438C495.588,78.914,495.588,125.289,467.088,153.789z" style="fill: rgb(75, 75, 75);"></path>
	<path class="st0" d="M355.416,117.82c-4.781-4.781-12.531-4.781-17.297,0L229.541,226.383c-4.781,4.781-4.781,12.531,0,17.313
		l38.766,38.781c4.781,4.781,12.531,4.781,17.313,0l108.563-108.563c4.781-4.781,4.781-12.531,0-17.313L355.416,117.82z" style="fill: rgb(75, 75, 75);"></path>
</g>
</svg>
